<?xml version="1.0" standalone="no"?>
<!DOCTYPE svg PUBLIC "-//W3C//DTD SVG 20010904//EN"
 "http://www.w3.org/TR/2001/REC-SVG-20010904/DTD/svg10.dtd">
<svg version="1.0" xmlns="http://www.w3.org/2000/svg"
 width="248.000000pt" height="250.000000pt" viewBox="0 0 248.000000 250.000000"
 preserveAspectRatio="xMidYMid meet">

<g transform="translate(0.000000,250.000000) scale(0.100000,-0.100000)"
fill="#000000" stroke="none">
<path d="M1325 1804 c-3 -20 -4 -39 -1 -42 3 -3 6 2 6 10 0 9 10 22 22 30 12
8 18 19 14 26 -14 23 -34 12 -41 -24z"/>
<path d="M1352 1765 c-19 -13 -40 -33 -49 -44 -9 -13 -26 -22 -46 -23 -22 -1
-17 -3 18 -7 48 -6 50 -8 53 -38 2 -20 9 -33 17 -33 25 0 27 21 4 43 -16 15
-19 22 -9 25 8 3 16 0 18 -7 2 -6 8 -9 13 -6 5 4 6 -1 3 -10 -5 -12 -2 -14 17
-6 32 11 31 36 -1 37 -14 1 -40 2 -59 3 l-35 1 28 29 c23 24 34 29 58 24 25
-5 29 -3 27 12 -6 27 -20 27 -57 0z"/>
<path d="M1490 1675 c0 -8 9 -15 20 -15 11 0 20 7 20 15 0 8 -9 15 -20 15 -11
0 -20 -7 -20 -15z"/>
<path d="M1450 1665 c-7 -8 -26 -15 -42 -15 -23 0 -29 -4 -24 -16 3 -9 6 -22
6 -30 0 -8 9 -14 20 -14 27 0 25 28 -2 40 l-23 9 23 0 c23 1 86 41 65 41 -6 0
-16 -7 -23 -15z"/>
<path d="M1467 1621 c21 -26 46 -27 41 -3 -2 10 -14 18 -31 20 -27 3 -28 3
-10 -17z"/>
<path d="M1653 1073 c-9 -21 -17 -40 -18 -43 0 -3 -3 -10 -7 -16 -9 -13 0 -24
17 -24 8 0 13 15 13 39 0 22 6 49 12 60 6 12 8 21 5 21 -3 0 -13 -17 -22 -37z"/>
<path d="M1554 1079 c-3 -6 -2 -15 4 -21 13 -13 32 -2 32 18 0 16 -26 19 -36
3z"/>
<path d="M1600 1066 c0 -2 9 -6 20 -9 11 -3 18 -1 14 4 -5 9 -34 13 -34 5z"/>
<path d="M1555 1030 c-10 -16 6 -32 26 -27 10 3 20 0 23 -7 2 -6 5 -3 5 6 1 9
7 19 14 22 6 4 2 4 -10 2 -13 -2 -26 0 -29 5 -7 12 -21 11 -29 -1z"/>
<path d="M920 870 c0 -5 -8 -10 -18 -10 -46 0 -57 -54 -14 -73 15 -6 30 -16
35 -22 5 -7 9 -7 15 0 4 6 19 16 35 22 42 19 31 73 -15 73 -10 0 -18 5 -18 10
0 6 -4 10 -10 10 -5 0 -10 -4 -10 -10z m0 -45 c0 -8 -7 -15 -15 -15 -16 0 -20
12 -8 23 11 12 23 8 23 -8z m58 -3 c2 -7 -6 -12 -17 -12 -21 0 -27 11 -14 24
9 9 26 2 31 -12z"/>
<path d="M1050 825 c0 -19 -4 -35 -10 -35 -5 0 -10 -7 -10 -16 0 -9 7 -14 18
-12 12 2 18 14 20 41 3 29 7 37 23 37 16 0 19 -7 19 -40 0 -29 4 -40 15 -40
11 0 15 12 15 50 l0 50 -45 0 c-45 0 -45 0 -45 -35z"/>
<path d="M1192 848 c-7 -7 -12 -25 -12 -40 0 -60 101 -64 108 -5 2 16 -2 35
-9 43 -14 17 -70 19 -87 2z m68 -23 c17 -20 4 -35 -31 -35 -22 0 -29 5 -29 19
0 30 39 41 60 16z"/>
<path d="M1330 811 c0 -39 4 -51 15 -51 8 0 15 6 15 14 0 9 12 16 33 18 28 3
32 6 32 33 0 29 -2 30 -47 33 l-48 3 0 -50z m78 12 c2 -8 -6 -13 -22 -13 -17
0 -26 5 -26 16 0 19 41 16 48 -3z"/>
<path d="M1478 815 c-12 -24 -18 -48 -14 -52 5 -5 11 -2 13 5 6 15 55 16 71 0
22 -22 23 0 0 46 -12 25 -28 46 -35 46 -7 0 -23 -20 -35 -45z m38 -2 c-10 -10
-19 5 -10 18 6 11 8 11 12 0 2 -7 1 -15 -2 -18z"/>
<path d="M1118 673 c57 -2 147 -2 200 0 53 1 7 3 -103 3 -110 0 -154 -2 -97
-3z"/>
</g>
</svg>
