<?xml version="1.0" standalone="no"?>
<!DOCTYPE svg PUBLIC "-//W3C//DTD SVG 20010904//EN"
 "http://www.w3.org/TR/2001/REC-SVG-20010904/DTD/svg10.dtd">
<svg version="1.0" xmlns="http://www.w3.org/2000/svg"
 width="350.000000pt" height="220.000000pt" viewBox="0 0 350.000000 220.000000"
 preserveAspectRatio="xMidYMid meet">

<g transform="translate(0.000000,220.000000) scale(0.100000,-0.100000)"
fill="#000000" stroke="none">
<path d="M965 1585 c-95 -34 -153 -147 -126 -245 7 -24 7 -24 30 16 30 53 84
84 145 84 84 0 137 -43 159 -129 13 -52 14 -53 29 -29 8 13 20 45 26 71 22
105 -34 201 -137 236 -44 14 -77 13 -126 -4z"/>
<path d="M813 1521 c-117 -55 -200 -169 -210 -288 -4 -49 0 -70 26 -135 17
-42 31 -87 31 -100 1 -29 33 -68 57 -68 41 0 95 -23 168 -70 l76 -50 60 9
c117 19 208 80 266 179 24 40 57 132 50 139 -2 1 -22 -11 -45 -28 -189 -139
-458 -15 -479 221 -6 65 14 143 49 192 10 16 18 28 16 28 -2 0 -31 -13 -65
-29z"/>
<path d="M964 1371 c-18 -11 -39 -30 -48 -42 -34 -49 -8 -136 49 -163 44 -21
49 -20 31 6 -49 69 20 172 101 152 23 -6 24 -5 14 14 -24 45 -100 62 -147 33z"/>
<path d="M1267 1328 c5 -51 3 -57 -27 -91 -41 -47 -85 -56 -138 -30 -39 19
-39 19 -34 -1 21 -87 133 -133 210 -86 92 56 95 188 5 247 -22 15 -22 14 -16
-39z"/>
<path d="M1670 1271 c0 -15 -10 -21 -41 -26 -93 -16 -137 -111 -87 -185 18
-27 36 -39 76 -50 43 -12 52 -19 52 -37 0 -19 6 -23 30 -23 25 0 30 4 30 24 0
21 6 25 42 31 28 5 53 18 75 40 28 28 33 40 33 80 0 40 -5 52 -33 80 -22 22
-47 35 -75 40 -32 5 -42 11 -42 26 0 14 -7 19 -30 19 -23 0 -30 -5 -30 -19z
m0 -152 c0 -61 -2 -70 -16 -65 -9 3 -20 6 -25 6 -18 0 -49 41 -49 65 0 14 9
34 20 45 11 11 31 20 45 20 24 0 25 -2 25 -71z m128 55 c28 -19 29 -67 2 -94
-11 -11 -24 -20 -29 -20 -5 0 -16 -3 -25 -6 -14 -5 -16 4 -16 65 0 67 1 71 23
71 12 0 33 -7 45 -16z"/>
<path d="M534 1213 c-3 -10 -25 -60 -50 -111 -48 -100 -55 -151 -29 -202 9
-17 17 -30 19 -30 2 0 3 14 4 31 0 17 19 68 41 113 23 44 41 87 41 94 0 27 19
9 49 -48 18 -33 34 -60 37 -60 3 0 2 4 -1 10 -3 5 -8 20 -10 32 -6 28 -82 188
-90 188 -3 0 -8 -8 -11 -17z"/>
<path d="M1986 1188 c-3 -13 -7 -47 -11 -76 -8 -74 -21 -102 -45 -102 -15 0
-20 -7 -20 -25 0 -29 19 -40 55 -31 32 8 52 48 66 135 l12 71 33 0 34 0 0
-105 0 -105 35 0 35 0 0 130 0 130 -95 0 c-90 0 -95 -1 -99 -22z"/>
<path d="M2302 1195 c-70 -31 -83 -149 -23 -209 28 -28 38 -31 88 -30 49 0 59
4 84 32 74 82 30 206 -77 218 -22 2 -53 -2 -72 -11z m108 -64 c5 -11 10 -34
10 -51 0 -49 -16 -70 -53 -70 -44 0 -57 16 -57 70 0 25 5 51 12 58 20 20 76
15 88 -7z"/>
<path d="M2550 1025 l0 -185 35 0 35 0 0 70 0 71 30 -16 c35 -18 51 -19 84 -4
33 15 56 66 56 123 0 58 -17 94 -51 112 -38 19 -62 18 -92 -6 -14 -11 -28 -20
-31 -20 -3 0 -6 9 -6 20 0 16 -7 20 -30 20 l-30 0 0 -185z m171 86 c16 -52 -4
-95 -46 -99 -37 -5 -55 19 -55 73 0 50 13 65 57 65 29 0 33 -4 44 -39z"/>
<path d="M2903 1199 c-36 -11 -37 -12 -23 -39 9 -16 15 -17 40 -8 39 13 76 4
83 -22 4 -17 0 -20 -26 -20 -115 0 -174 -74 -111 -137 21 -21 32 -25 66 -20
22 3 48 13 59 23 19 17 20 17 26 -4 3 -15 13 -22 29 -22 24 0 24 1 24 99 0 90
-2 103 -23 126 -26 31 -89 41 -144 24z m104 -146 c7 -21 -36 -54 -65 -51 -33
4 -42 36 -16 55 22 16 76 13 81 -4z"/>
</g>
</svg>
